/* XPM */
static char * grp_xpm[] = {
"16 16 5 1",
" 	c None",
".	c #A0A0A0",
"+	c #000000",
"@	c #777777",
"#	c #FFFFFF",
"................",
".+++++++@@@@@@@+",
".+####++@@@@@@@+",
".+###+.+@@@@@@@+",
".+##+..+@@@@@@@+",
".+#+...+@@@@@@@+",
".++....+@@@@@@@+",
".+++++++@@@@@@@+",
".+++++++++++++++",
".+####+++####+++",
".+###+.++###+.++",
".+##+..++##+..++",
".+#+...++#+...++",
".++....+++....++",
".+++++++++++++++",
".+++++++++++++++"};
