/* XPM */
static char * obj_xpm[] = {
"16 16 5 1",
" 	c None",
".	c #FFFFFF",
"+	c #000000",
"@	c #A0A0A0",
"#	c #777777",
"................",
"................",
"..+++++++++++...",
"..++@@@@@@@+++..",
"..+.+@@@@@+#++..",
"..+..+@@@+##++..",
"..+...+@+###++..",
"..+....+####++..",
"..+...+@+###++..",
"..+..+@@@+##++..",
"..+.+@@@@@+#++..",
"..++@@@@@@@+++..",
"..++++++++++++..",
"...+++++++++++..",
"................",
"................"};
