/* XPM */
static char * ovx_xpm[] = {
"16 16 2 1",
" 	c #FFFFFFFFFFFF",
".	c #4D4DBFBF5F5F",
"                ",
" .............  ",
" .  .  .     .. ",
" .  .  .     .. ",
" .......     .. ",
" .  .  .     .. ",
" .  .  .     .. ",
" .............. ",
" ....  .  .  .. ",
" ....  .  .  .. ",
" .............. ",
" .......  .  .. ",
" .......  .  .. ",
" .............. ",
"  ............. ",
"                "};
