/* XPM */
static char * root_xpm[] = {
"16 16 4 1",
" 	c None",
".	c #FFFFFF",
"+	c #A0A0A0",
"@	c #000000",
"................",
"................",
"................",
"................",
"..++++++++++++..",
".+............+.",
".+............+@",
".+............+@",
".+............+@",
".+............+@",
".+............+@",
"..++++++++++++@@",
"...@@@@@@@@@@@@.",
"................",
"................",
"................"};
