/* XPM */
static char * svx_xpm[] = {
"16 16 2 1",
" 	c #FFFFFFFFFFFF",
".	c #B3B33C3C4646",
"                ",
" .............  ",
" . . . . . . .. ",
" .............. ",
" . . . . . . .. ",
" .............. ",
" . . . . . . .. ",
" .............. ",
" . . . . . . .. ",
" .............. ",
" . . . . . . .. ",
" .............. ",
" . . . . . . .. ",
" .............. ",
"  ............. ",
"                "};
